<svg id="Livello_1" data-name="Livello 1" xmlns="http://www.w3.org/2000/svg" viewBox="0 0 301 301">
  <defs>
    <style>
      .cls-1 {
        fill: #bfd8af;
        stroke: #bfd8af;
        stroke-miterlimit: 10;
      }
      .cls-2 {
        fill: #fff;
        stroke-width: 0px;
      }
    </style>
  </defs>
  <circle class="cls-1" cx="150.5" cy="150.5" r="150"/>
  <path class="cls-2" d="M275.5,150.5c0,5.06-.3,10.05-.89,14.95-.79,6.71-2.13,13.26-3.95,19.6l-.16.1v.46c-2.22,7.62-5.16,14.95-8.72,21.89-1.92,3.73-4.01,7.36-6.28,10.86-4.31,6.65-9.23,12.87-14.7,18.57h-.01s-.29.18-.29.18V98.54l-15,8.66v143.31c-4.75,3.57-9.76,6.8-15,9.67-4.81,2.65-9.82,4.98-15,6.97V124.52l-15,8.66v138.57l-.38.22c-4.77,1.16-9.65,2.04-14.62,2.64-4.92.59-9.92.89-15,.89-2.09,0-4.17-.05-6.23-.15h-.01c-2.95-.15-5.87-.39-8.76-.74v-115.45l-15,8.66-15,8.66v90.67c-1.39-.53-2.77-1.09-4.13-1.68-3.72-1.59-7.35-3.35-10.87-5.29-1.68-.92-3.34-1.88-4.98-2.88-3.45-2.1-6.8-4.37-10.02-6.79-1.18-.89-2.35-1.8-3.5-2.72-4.05-3.28-7.89-6.8-11.5-10.55v-.13l-.08.05c-3.53-3.67-6.84-7.55-9.9-11.62-1.75-2.33-3.43-4.73-5.02-7.18-1.13-1.75-2.22-3.54-3.27-5.35-2.5-4.32-4.75-8.8-6.73-13.43-1.93-4.53-3.61-9.19-5-13.97v-.47l-.12.07c-1.44-5-2.58-10.13-3.39-15.36-.84-5.39-1.33-10.89-1.46-16.48-.02-.96-.03-1.91-.03-2.87,0-5.06.3-10.05.89-14.95.79-6.71,2.12-13.25,3.94-19.59l.17-.1v-.47c2.22-7.62,5.15-14.94,8.71-21.88,1.92-3.73,4.02-7.36,6.29-10.87,4.31-6.65,9.23-12.86,14.68-18.56l.32-.18v-.14c4.63-4.81,9.65-9.25,15-13.27,4.75-3.57,9.76-6.8,15-9.67,4.82-2.65,9.82-4.98,15-6.97,4.86-1.88,9.87-3.46,15-4.72v.13l.4-.23c4.77-1.16,9.64-2.05,14.6-2.64,4.92-.59,9.92-.89,15-.89,2.09,0,4.17.05,6.24.15,2.95.15,5.87.4,8.76.74,5.1.61,10.11,1.53,15,2.74v34.77l-15,8.66-15,8.66-15,8.66-15,8.66-15,8.66v17.32l30-17.32,15-8.66,15-8.66,15-8.66,15-8.66,15-8.67,15-8.66,3.5-2.02c4.05,3.28,7.9,6.8,11.5,10.55v.13l.09-.05c3.52,3.67,6.83,7.55,9.89,11.62,1.75,2.33,3.43,4.73,5.02,7.18,1.13,1.75,2.22,3.54,3.27,5.35,2.5,4.32,4.75,8.81,6.73,13.44,1.93,4.52,3.61,9.18,5,13.96v.47l.12-.06c1.44,5,2.58,10.13,3.39,15.36.84,5.39,1.33,10.89,1.46,16.48.02.95.03,1.91.03,2.86Z"/>
</svg>